<?xml version="1.0" standalone="no"?>
<!DOCTYPE svg PUBLIC "-//W3C//DTD SVG 20010904//EN"
 "http://www.w3.org/TR/2001/REC-SVG-20010904/DTD/svg10.dtd">
<svg version="1.0" xmlns="http://www.w3.org/2000/svg"
 width="512.000000pt" height="512.000000pt" viewBox="0 0 512.000000 512.000000"
 preserveAspectRatio="xMidYMid meet">
<metadata>
Created by potrace 1.16, written by Peter Selinger 2001-2019
</metadata>
<g transform="translate(0.000000,512.000000) scale(0.100000,-0.100000)"
fill="#000000" stroke="none">
<path d="M2445 4080 c-364 -32 -672 -183 -941 -461 -171 -178 -277 -351 -347
-564 -148 -451 -61 -981 229 -1385 41 -58 89 -131 106 -163 84 -156 377 -357
659 -452 362 -120 778 -71 1124 132 111 66 118 77 15 24 -115 -59 -239 -104
-380 -137 -148 -35 -394 -44 -540 -19 -218 36 -447 136 -632 275 -119 89 -161
134 -206 218 -17 31 -58 93 -92 137 -113 150 -212 375 -278 635 -24 95 -27
122 -27 280 1 251 40 412 156 640 78 154 158 261 298 401 274 272 591 409 996
429 83 4 121 8 85 9 -36 0 -81 3 -100 5 -19 2 -76 0 -125 -4z"/>
<path d="M2356 3809 c-232 -34 -465 -155 -642 -334 -171 -173 -292 -388 -340
-605 -8 -36 -21 -90 -29 -120 -10 -36 -15 -101 -15 -190 l0 -136 35 -50 c19
-27 35 -54 35 -61 0 -6 12 -21 28 -31 20 -15 34 -41 51 -94 29 -90 85 -202
151 -304 l50 -77 -38 -18 c-69 -36 -97 -104 -69 -172 42 -99 168 -100 236 -1
37 54 29 93 -37 176 -118 147 -181 263 -230 421 -29 92 -34 101 -96 162 l-66
64 0 140 c0 135 8 187 33 203 24 15 87 8 107 -12 18 -18 20 -33 20 -132 0
-161 5 -179 60 -242 37 -42 54 -74 75 -138 39 -121 96 -223 181 -325 181 -219
405 -335 677 -350 95 -5 110 -9 133 -30 18 -17 23 -28 16 -35 -6 -6 -62 -10
-134 -11 -183 0 -337 42 -496 138 -70 43 -82 44 -82 5 0 -41 25 -99 58 -133
22 -24 25 -31 14 -47 -7 -11 -12 -21 -12 -23 0 -3 27 -16 60 -31 271 -122 524
-144 797 -71 l92 25 43 -30 c87 -61 147 -46 313 77 236 175 402 418 481 705
22 79 26 119 30 273 5 217 -7 336 -51 510 -30 121 -115 348 -135 360 -4 3 8
-32 27 -77 44 -106 97 -289 117 -409 20 -121 30 -311 19 -369 l-9 -45 -32 32
c-31 31 -32 33 -32 125 0 262 -78 518 -226 741 -119 179 -320 357 -500 442
-205 97 -452 135 -668 104z m379 -36 c413 -80 778 -411 920 -835 126 -377 71
-821 -142 -1141 -118 -178 -371 -387 -468 -387 -21 0 -25 5 -25 28 1 45 21 69
116 131 173 114 329 309 405 505 63 163 99 362 72 404 -12 20 -12 25 3 39 14
14 15 30 9 97 -13 158 -53 315 -90 352 -13 13 -27 34 -31 46 -14 46 -74 155
-122 223 -103 144 -250 271 -407 349 -325 163 -676 145 -977 -49 -185 -120
-367 -351 -432 -551 -12 -37 -31 -65 -71 -102 -84 -80 -89 -73 -49 64 70 242
229 476 422 622 255 192 561 264 867 205z m-211 -155 c9 -36 7 -194 -3 -222
-8 -20 -19 -26 -58 -31 -78 -9 -161 -34 -221 -64 -232 -117 -402 -381 -402
-622 l0 -67 37 10 c20 5 81 8 135 6 130 -4 128 -1 128 -178 0 -150 0 -151 74
-228 37 -39 41 -48 47 -112 8 -93 32 -118 146 -160 136 -49 124 -31 121 -183
l-3 -132 -34 -3 c-53 -5 -209 34 -290 73 -97 46 -175 101 -253 177 -119 116
-191 230 -246 391 -21 60 -42 101 -73 137 l-43 52 0 171 c1 152 4 183 26 268
47 172 130 318 258 453 168 176 385 282 586 285 56 1 62 -1 68 -21z m249 -13
c272 -79 488 -258 616 -512 44 -88 42 -97 -29 -133 -33 -16 -62 -30 -65 -30
-2 0 -19 28 -36 63 -49 97 -96 165 -158 230 -118 124 -245 186 -451 220 l-75
13 -3 93 -3 94 62 -7 c33 -4 98 -18 142 -31z m-150 -307 c17 -22 19 -33 11
-55 -21 -62 -104 -68 -132 -10 -38 79 69 135 121 65z m383 -27 c65 -48 84
-109 40 -135 -15 -9 -22 -6 -40 19 -28 39 -56 67 -86 86 -25 16 -25 17 -6 38
26 28 45 27 92 -8z m-172 -35 c86 -39 130 -77 197 -166 42 -57 56 -69 87 -74
30 -5 42 -14 66 -52 18 -28 31 -65 34 -94 4 -43 2 -50 -21 -64 -24 -16 -24
-18 -30 -204 -6 -211 -18 -264 -86 -369 -103 -158 -267 -260 -436 -270 -75 -5
-86 -3 -180 34 -132 52 -145 69 -145 199 0 85 -2 95 -26 123 -14 17 -36 31
-47 31 -41 0 -45 11 -48 143 l-4 129 -33 29 c-22 20 -43 29 -67 29 -27 0 -35
4 -35 18 0 33 -40 84 -80 99 l-39 16 20 51 c49 122 115 214 214 293 67 54 179
109 241 119 40 6 40 6 52 -35 15 -49 57 -81 107 -81 49 0 92 42 101 100 l7 42
40 -6 c22 -4 72 -22 111 -40z m683 -347 c26 -81 53 -235 53 -301 0 -43 -3 -48
-26 -54 -14 -4 -82 -4 -150 -2 -120 5 -126 6 -154 33 -26 25 -30 36 -30 81 0
47 3 55 30 74 24 17 30 29 30 57 0 58 32 96 118 142 42 22 84 40 92 38 9 -1
24 -29 37 -68z m-86 -431 c25 -47 -10 -217 -72 -343 -126 -260 -381 -442 -678
-485 -105 -16 -111 -12 -111 84 0 104 5 116 49 116 67 0 173 29 255 69 101 49
205 142 275 246 64 97 88 160 117 313 4 20 10 22 79 22 66 0 76 -2 86 -22z
m139 7 c10 -12 10 -37 1 -121 -21 -184 -81 -349 -183 -504 -57 -88 -179 -207
-258 -255 -36 -21 -82 -53 -103 -72 -42 -37 -51 -35 -100 23 l-28 33 68 35
c303 152 513 477 513 795 0 37 3 71 7 74 12 13 71 7 83 -8z m-1802 -731 c57
-65 -10 -168 -97 -149 -39 8 -71 49 -71 89 1 84 112 124 168 60z"/>
<path d="M2153 3379 c-212 -105 -369 -337 -407 -596 -7 -47 10 -69 20 -26 19
86 46 178 68 227 65 146 182 282 325 376 71 47 88 60 79 60 -2 0 -40 -18 -85
-41z"/>
<path d="M1955 2200 c-14 -22 74 -132 154 -194 72 -56 108 -73 122 -59 16 16
0 41 -45 67 -24 14 -79 63 -124 111 -80 84 -95 95 -107 75z"/>
<path d="M1892 2138 c-20 -20 -14 -52 19 -101 35 -54 123 -136 175 -163 l36
-19 20 25 20 24 -25 21 c-13 11 -45 37 -71 58 -25 21 -69 66 -98 100 -58 71
-59 72 -76 55z"/>
<path d="M2874 3020 c-102 -15 -124 -58 -124 -245 l0 -135 -95 0 -95 0 0 -55
0 -55 83 0 c92 0 119 -12 162 -70 23 -31 25 -42 25 -146 0 -105 -1 -114 -22
-128 -25 -18 -84 -21 -93 -6 -3 6 1 13 9 16 22 8 36 67 36 146 0 121 -22 138
-176 138 -51 0 -104 4 -118 10 -26 9 -26 11 -26 112 0 64 6 118 15 143 18 52
19 166 1 210 -9 22 -23 36 -38 39 -133 28 -206 30 -248 9 -43 -23 -65 -60 -56
-97 10 -39 28 -41 90 -11 45 22 63 26 97 20 77 -13 111 -79 75 -144 l-14 -25
-22 45 c-26 51 -35 59 -72 59 -37 0 -68 -32 -68 -71 0 -33 46 -89 74 -89 9 0
25 -6 36 -12 16 -10 24 -10 40 0 37 23 40 15 40 -96 0 -144 -4 -141 169 -144
110 -3 136 -6 144 -19 6 -9 7 -24 4 -33 -5 -14 -26 -16 -142 -16 -128 0 -135
-1 -135 -20 0 -18 8 -20 122 -22 125 -3 144 -10 113 -42 -13 -13 -39 -16 -127
-16 l-111 0 5 -71 c6 -85 25 -114 92 -148 44 -22 53 -23 90 -12 22 6 68 18
100 27 152 38 291 176 330 329 22 80 23 365 2 365 -7 0 -19 -7 -26 -15 -16
-20 -89 -19 -118 1 -17 11 -22 25 -22 56 l0 41 -21 -19 c-12 -10 -26 -30 -32
-44 -11 -23 -12 -20 -15 29 -3 44 1 58 19 77 33 35 92 49 127 30 73 -40 71
-39 87 -26 30 25 10 86 -38 112 -32 17 -86 24 -133 18z m-564 -209 c21 -40 1
-91 -36 -91 -39 0 -70 70 -42 98 19 19 66 15 78 -7z m353 -633 c18 -24 18 -30
7 -58 -15 -35 -37 -50 -76 -50 -62 0 -85 69 -39 116 33 33 80 30 108 -8z"/>
</g>
</svg>